<?xml version="1.0" encoding="utf-8"?>
<!-- Generator: Adobe Illustrator 14.0.0, SVG Export Plug-In . SVG Version: 6.00 Build 43363)  -->
<!DOCTYPE svg PUBLIC "-//W3C//DTD SVG 1.1//EN" "http://www.w3.org/Graphics/SVG/1.1/DTD/svg11.dtd">
<svg version="1.1" id="Layer_1" xmlns="http://www.w3.org/2000/svg" xmlns:xlink="http://www.w3.org/1999/xlink" x="0px" y="0px"
	 width="144px" height="144px" viewBox="0 0 144 144" enable-background="new 0 0 144 144" xml:space="preserve">
<g>
	<defs>
		<rect id="SVGID_1_" width="144" height="144"/>
	</defs>
	<clipPath id="SVGID_2_">
		<use xlink:href="#SVGID_1_"  overflow="visible"/>
	</clipPath>
</g>
<g>
	<defs>
		<rect id="SVGID_3_" width="144" height="144"/>
	</defs>
	<clipPath id="SVGID_4_">
		<use xlink:href="#SVGID_3_"  overflow="visible"/>
	</clipPath>
	<path clip-path="url(#SVGID_4_)" fill="#4495D1" d="M89.354,49.59c0,0-1.52-5.175-5.728-7.824l0.359,0.79
		c2.026,4.965,2.634,13.087-4.285,17.92c-0.435,0.338-2.798,2.045-6.596,2.705c3.107,1.866,1.369,5.337,1.369,5.337
		c-3.364,5.21-1.612,8.398-1.612,8.398c1.037,3.266,6.35,2.79,6.35,2.79s10.461,0.556,11.03-11.729
		C91.504,56.043,89.354,49.59,89.354,49.59 M80.428,76.034c-1.958-0.021-3.524-1.629-3.5-3.587c0.023-1.958,1.63-3.525,3.586-3.499
		c1.958,0.023,3.525,1.628,3.503,3.585C83.991,74.49,82.385,76.057,80.428,76.034 M81.222,41.912
		c-4.247-8.521-17.069-7.592-17.069-7.592s-1.34-0.001-3.557-0.03c-7.867,0.283-23.527,1.169-33.814,3.908
		c-0.242,0.137-1.191,0.745-1.166,1.907c0.077,0.216,0.735,1.652,4.87,1.558l1.873,0.026c0.043-0.008,1.049-0.055,2.041,0.891
		c1.38,1.318,2.032,3.854,1.932,7.539c0.074,0.736,0.425,5.062-1.397,7.158c-0.622,0.716-1.454,1.112-2.402,1.139L15.097,58.24
		c-0.283,0.007-7.43,0.277-7.606,8.666l0.05,16.184l-0.007,0.051c-0.003,0.027-0.308,3.038,1.701,5.282
		c1.541,1.72,4.052,2.593,7.459,2.593l1.443-0.015c0.281-0.029,9.392-0.649,14.978,7.597c0,0,10.591,17.662,39.922,17.662
		c0.365-1.53-0.115-3.79-0.115-3.79c-0.406-3.268-3.181-4.239-3.181-4.239c-16.952-3.829-18.898-13.241-18.898-13.241
		c-2.218-8.565-0.26-26.976-0.26-26.976c2.035-10.562,14.87-7.556,14.87-7.556c7.868,1.613,12.622-2.55,12.622-2.55
		C85.569,52.334,81.222,41.912,81.222,41.912 M26.571,82.585c-4.34,0-7.859-3.52-7.859-7.859c0-4.342,3.519-7.861,7.859-7.861
		c4.341,0,7.86,3.519,7.86,7.861C34.431,79.065,30.912,82.585,26.571,82.585 M70.256,53.802c-3.094,0.067-5.656-2.386-5.725-5.479
		c-0.064-3.093,2.388-5.656,5.483-5.723c3.092-0.067,5.654,2.389,5.722,5.479C75.802,51.172,73.35,53.735,70.256,53.802"/>
	<path clip-path="url(#SVGID_4_)" fill="#636566" d="M54.312,92.94c0,0,1.52,5.174,5.728,7.824l-0.359-0.791
		c-2.028-4.965-2.634-13.086,4.283-17.919c0.436-0.338,2.8-2.045,6.596-2.705c-3.108-1.867-1.368-5.337-1.368-5.337
		c3.363-5.212,1.612-8.398,1.612-8.398c-1.037-3.267-6.349-2.79-6.349-2.79s-10.461-0.556-11.032,11.729
		C52.163,86.489,54.312,92.94,54.312,92.94 M63.237,66.497c1.959,0.021,3.525,1.63,3.501,3.588s-1.63,3.524-3.586,3.499
		c-1.958-0.023-3.526-1.628-3.503-3.585C59.673,68.041,61.28,66.474,63.237,66.497 M136.132,59.388
		c0.002-0.027,0.091-3.283-1.701-5.282c-1.542-1.72-3.907-2.631-7.46-2.593l-1.373,0.04c-0.412,0.011-9.109,0.624-15.047-7.622
		c0,0-10.591-17.661-39.921-17.661c-0.366,1.531,0.115,3.79,0.115,3.79c0.406,3.267,3.18,4.239,3.18,4.239
		c16.951,3.829,18.898,13.242,18.898,13.242c2.218,8.565,0.26,26.975,0.26,26.975c-2.035,10.562-14.871,7.556-14.871,7.556
		c-7.868-1.612-12.623,2.55-12.623,2.55c-7.493,5.575-3.145,15.996-3.145,15.996c4.247,8.521,17.067,7.593,17.067,7.593
		s1.342,0.001,3.559,0.029c7.867-0.282,23.526-1.169,33.813-3.908c0.241-0.136,1.191-0.743,1.166-1.906
		c-0.076-0.215-0.734-1.653-4.87-1.557l-1.873-0.027c-0.043,0.008-1.049,0.056-2.041-0.89c-1.381-1.318-2.031-3.854-1.932-7.54
		c-0.074-0.735-0.425-5.062,1.397-7.157c0.622-0.718,1.453-1.112,2.401-1.141l17.437,0.176c0.282-0.007,7.43-0.276,7.605-8.666
		L136.132,59.388z M73.652,99.932c-3.092,0.066-5.654-2.389-5.721-5.479c-0.067-3.095,2.385-5.656,5.479-5.724
		c3.094-0.069,5.656,2.385,5.725,5.479C79.199,97.302,76.747,99.863,73.652,99.932 M118.068,75.9c-4.342,0-7.859-3.519-7.859-7.86
		c0-4.34,3.518-7.86,7.859-7.86c4.34,0,7.859,3.52,7.859,7.86C125.928,72.381,122.408,75.9,118.068,75.9"/>
</g>
</svg>
